<?xml version="1.0" standalone="no"?>
<!DOCTYPE svg PUBLIC "-//W3C//DTD SVG 20010904//EN"
 "http://www.w3.org/TR/2001/REC-SVG-20010904/DTD/svg10.dtd">
<svg version="1.0" xmlns="http://www.w3.org/2000/svg"
 width="512.000000pt" height="512.000000pt" viewBox="0 0 512.000000 512.000000"
 preserveAspectRatio="xMidYMid meet">
<metadata>
Created by potrace 1.16, written by Peter Selinger 2001-2019
</metadata>
<g transform="translate(0.000000,512.000000) scale(0.100000,-0.100000)"
fill="#000000" stroke="none">
<path d="M640 4824 c-87 -40 -139 -89 -174 -163 l-31 -66 -3 -1632 -2 -1633
260 0 260 0 -2 343 -3 342 -130 5 c-78 3 -139 10 -152 18 -68 39 -68 165 0
204 13 8 74 15 152 18 l130 5 3 793 2 792 -119 0 c-131 0 -160 7 -196 46 -33
36 -35 109 -3 149 34 44 75 55 203 55 l115 0 0 375 0 375 -127 0 c-116 0 -133
-3 -183 -26z"/>
<path d="M1190 4475 l0 -375 59 0 c75 0 113 -14 140 -51 28 -37 31 -107 8
-142 -23 -36 -77 -57 -146 -57 l-61 0 0 -795 0 -795 75 0 c69 0 77 -2 109 -30
19 -17 38 -44 41 -60 9 -42 -11 -95 -46 -125 -27 -22 -40 -25 -105 -25 l-74 0
0 -340 0 -340 1190 0 1190 0 0 1755 0 1755 -1190 0 -1190 0 0 -375z m1852
-386 c40 -18 63 -60 63 -111 0 -40 -5 -52 -34 -82 l-35 -36 -598 0 c-657 0
-641 -1 -673 60 -19 37 -19 73 0 114 33 68 5 65 662 66 400 0 600 -3 615 -11z
m-3 -622 c41 -21 66 -64 66 -114 0 -39 -5 -49 -37 -79 l-38 -34 -602 -2 c-332
-1 -618 -1 -637 0 -120 7 -158 170 -52 227 36 20 1262 22 1300 2z m1 -625 c86
-43 88 -157 3 -213 -26 -18 -62 -19 -646 -19 -545 0 -623 2 -652 16 -67 31
-91 107 -53 164 49 73 22 70 703 70 561 0 613 -1 645 -18z m-298 -650 c29 -29
33 -39 33 -86 0 -64 -26 -100 -84 -116 -21 -6 -214 -10 -471 -10 -394 0 -438
2 -469 18 -96 49 -101 170 -8 216 28 14 88 16 499 13 l468 -2 32 -33z"/>
<path d="M3820 3067 l0 -1728 131 3 131 3 1 280 c2 257 4 282 21 308 24 35 65
57 107 57 38 0 93 -35 108 -68 7 -14 11 -132 11 -317 l0 -295 184 0 c114 0
186 4 188 10 2 5 2 566 0 1245 l-2 1235 -185 0 -185 0 0 -704 c0 -481 -3 -713
-11 -734 -14 -41 -65 -72 -117 -72 -51 0 -98 37 -112 88 -6 24 -9 424 -9 1097
l0 1059 -131 131 -130 130 0 -1728z"/>
<path d="M4330 4161 c0 -104 1 -109 23 -115 32 -8 207 -7 207 2 0 9 -213 222
-223 222 -4 0 -7 -49 -7 -109z"/>
<path d="M576 1083 l-149 -4 5 -75 c6 -83 21 -113 78 -151 30 -21 44 -23 172
-23 l139 0 -3 126 -3 126 -45 2 c-25 1 -112 0 -194 -1z"/>
<path d="M1068 1080 c-1 -5 -2 -64 0 -130 l3 -120 160 0 159 0 0 130 0 130
-159 0 c-95 0 -161 -4 -163 -10z"/>
<path d="M1640 960 l0 -130 1068 0 c1021 0 1069 -1 1102 -19 35 -18 44 -31 76
-103 l16 -38 88 0 c88 0 88 0 94 28 3 15 4 108 2 207 l-4 180 -1221 3 -1221 2
0 -130z"/>
<path d="M4330 965 c0 -86 8 -113 25 -85 3 5 55 46 115 91 61 45 110 83 110
85 0 2 -56 4 -125 4 l-125 0 0 -95z"/>
<path d="M1068 459 c-2 -67 0 -123 4 -125 3 -2 18 11 33 28 42 50 75 68 125
68 51 0 90 -22 132 -72 l27 -33 1 128 0 127 -159 0 -160 0 -3 -121z"/>
<path d="M3603 533 c43 -15 51 -15 95 0 l47 16 -95 0 -95 0 48 -16z"/>
</g>
</svg>
